/* XPM */
static char * C:\Users\hongl\Downloads\chta_32x32_xpm[] = {
"32 32 992 2",
"  	c #B88960",
". 	c #B7885F",
"+ 	c #B5865F",
"@ 	c #B4855F",
"# 	c #B5885F",
"$ 	c #B78A62",
"% 	c #BC8F66",
"& 	c #C09368",
"* 	c #C4966B",
"= 	c #C79B6F",
"- 	c #CA9E73",
"; 	c #C99D72",
"> 	c #C79C71",
", 	c #C69A70",
"' 	c #BB8C62",
") 	c #AE7D59",
"! 	c #B68862",
"~ 	c #B98660",
"{ 	c #C09267",
"] 	c #B5845B",
"^ 	c #B5805A",
"/ 	c #B48158",
"( 	c #B6845A",
"_ 	c #B9895C",
": 	c #BC8C5E",
"< 	c #C09060",
"[ 	c #BE8E5F",
"} 	c #BA895D",
"| 	c #B7865C",
"1 	c #B4835A",
"2 	c #9B6D50",
"3 	c #865C48",
"4 	c #946853",
"5 	c #A2755C",
"6 	c #AB7C5F",
"7 	c #B48663",
"8 	c #BB8E66",
"9 	c #C29369",
"0 	c #C69769",
"a 	c #C89A6B",
"b 	c #CA9F70",
"c 	c #CEA173",
"d 	c #C89B71",
"e 	c #C09572",
"f 	c #B18567",
"g 	c #9A694F",
"h 	c #8C6350",
"i 	c #A17963",
"j 	c #AA785A",
"k 	c #C6976E",
"l 	c #C3946A",
"m 	c #BF8F63",
"n 	c #BE8F61",
"o 	c #BF9061",
"p 	c #C29262",
"q 	c #C39464",
"r 	c #C49464",
"s 	c #C59565",
"t 	c #BB8A5D",
"u 	c #B98A5D",
"v 	c #4F3A36",
"w 	c #43302F",
"x 	c #4D3732",
"y 	c #79554A",
"z 	c #895C4B",
"A 	c #A7795F",
"B 	c #A97A60",
"C 	c #C29571",
"D 	c #CB9D6F",
"E 	c #CEA06D",
"F 	c #CFA170",
"G 	c #C39369",
"H 	c #94684B",
"I 	c #806051",
"J 	c #7C5D4F",
"K 	c #6B4736",
"L 	c #986B55",
"M 	c #815A4A",
"N 	c #4A291D",
"O 	c #936342",
"P 	c #D0A376",
"Q 	c #C79B6A",
"R 	c #C89C6B",
"S 	c #CB9D6C",
"T 	c #CA9B6B",
"U 	c #CA9C6A",
"V 	c #C89867",
"W 	c #C39364",
"X 	c #BF8F60",
"Y 	c #BC8C60",
"Z 	c #3A2A28",
"` 	c #443433",
" .	c #43312F",
"..	c #51362D",
"+.	c #855A49",
"@.	c #9F6C54",
"#.	c #9B6A53",
"$.	c #BF957B",
"%.	c #C49C7B",
"&.	c #A47250",
"*.	c #774F3C",
"=.	c #9D694D",
"-.	c #8E5C44",
";.	c #815949",
">.	c #664334",
",.	c #815747",
"'.	c #A06F54",
").	c #85563B",
"!.	c #AD7C55",
"~.	c #E0B486",
"{.	c #CA9D6D",
"].	c #CFA272",
"^.	c #D0A474",
"/.	c #D1A474",
"(.	c #CC9F70",
"_.	c #C99D71",
":.	c #C3966C",
"<.	c #D8AC80",
"[.	c #CA9B6A",
"}.	c #C59666",
"|.	c #C19164",
"1.	c #4D3938",
"2.	c #463533",
"3.	c #372724",
"4.	c #523C37",
"5.	c #61443A",
"6.	c #885843",
"7.	c #9D6952",
"8.	c #9E6F58",
"9.	c #AF8167",
"0.	c #A17761",
"a.	c #4F362F",
"b.	c #5D3B2F",
"c.	c #764733",
"d.	c #AC6E4C",
"e.	c #935C45",
"f.	c #8B5D4A",
"g.	c #8A5F49",
"h.	c #9B6B51",
"i.	c #C38F67",
"j.	c #EAC391",
"k.	c #F3D2A1",
"l.	c #D5AC7C",
"m.	c #D1A375",
"n.	c #D1A576",
"o.	c #906549",
"p.	c #A26C48",
"q.	c #AC7C57",
"r.	c #CCA476",
"s.	c #DBB588",
"t.	c #C89B6A",
"u.	c #C59668",
"v.	c #493735",
"w.	c #5C4944",
"x.	c #624C47",
"y.	c #47302A",
"z.	c #8A6A57",
"A.	c #B78F74",
"B.	c #CAA380",
"C.	c #9F7259",
"D.	c #6C4A3F",
"E.	c #573F38",
"F.	c #412D28",
"G.	c #4D3128",
"H.	c #784836",
"I.	c #A57257",
"J.	c #996E56",
"K.	c #9D735D",
"L.	c #9A6B50",
"M.	c #BD8760",
"N.	c #B98B69",
"O.	c #C59D79",
"P.	c #CFAA82",
"Q.	c #CB9F75",
"R.	c #C19166",
"S.	c #8B6043",
"T.	c #8B5031",
"U.	c #BB8151",
"V.	c #B9895B",
"W.	c #B07F56",
"X.	c #BF9066",
"Y.	c #D1A87B",
"Z.	c #3C2B29",
"`.	c #4A3836",
" +	c #453230",
".+	c #5B423B",
"++	c #8D6F63",
"@+	c #664033",
"#+	c #875438",
"$+	c #B98864",
"%+	c #76523E",
"&+	c #352421",
"*+	c #523C35",
"=+	c #50362F",
"-+	c #604134",
";+	c #755240",
">+	c #825F4C",
",+	c #825F4D",
"'+	c #7E5743",
")+	c #9B684A",
"!+	c #B88762",
"~+	c #C6996F",
"{+	c #B1805A",
"]+	c #BB885C",
"^+	c #AA734C",
"/+	c #966848",
"(+	c #67341E",
"_+	c #9B542B",
":+	c #B37343",
"<+	c #BB875A",
"[+	c #9C6B4A",
"}+	c #A2704C",
"|+	c #CFA476",
"1+	c #C59667",
"2+	c #463332",
"3+	c #3F2D2C",
"4+	c #4C3C39",
"5+	c #533D38",
"6+	c #6E5249",
"7+	c #684A41",
"8+	c #6E442F",
"9+	c #8C5D42",
"0+	c #7D543F",
"a+	c #452E28",
"b+	c #49362F",
"c+	c #594034",
"d+	c #664431",
"e+	c #8A634D",
"f+	c #62453A",
"g+	c #866452",
"h+	c #7A5541",
"i+	c #7D5139",
"j+	c #AD7C56",
"k+	c #B38462",
"l+	c #A1714F",
"m+	c #D19B69",
"n+	c #C98B55",
"o+	c #BD7B46",
"p+	c #AD6E3F",
"q+	c #A76233",
"r+	c #9E6339",
"s+	c #6A381D",
"t+	c #7E4A2E",
"u+	c #945F3E",
"v+	c #C49669",
"w+	c #C39365",
"x+	c #533F3E",
"y+	c #342321",
"z+	c #362623",
"A+	c #5A4743",
"B+	c #5C3F35",
"C+	c #56392F",
"D+	c #5D3928",
"E+	c #592F1B",
"F+	c #4D2716",
"G+	c #492F25",
"H+	c #55392C",
"I+	c #613F2D",
"J+	c #77503A",
"K+	c #77503C",
"L+	c #684636",
"M+	c #734F3C",
"N+	c #7F553E",
"O+	c #6C422C",
"P+	c #9C6A48",
"Q+	c #A77452",
"R+	c #B68058",
"S+	c #D29D69",
"T+	c #DFA96D",
"U+	c #D5995A",
"V+	c #CE8F52",
"W+	c #CB8A4D",
"X+	c #8D5932",
"Y+	c #673820",
"Z+	c #8A5232",
"`+	c #A7744F",
" @	c #CA9E70",
".@	c #C49667",
"+@	c #584443",
"@@	c #4E3B3A",
"#@	c #362624",
"$@	c #43322F",
"%@	c #614439",
"&@	c #4A2E21",
"*@	c #40271B",
"=@	c #4D2D1D",
"-@	c #492A1D",
";@	c #573828",
">@	c #5D3E2E",
",@	c #6D4935",
"'@	c #805642",
")@	c #6A4837",
"!@	c #764A34",
"~@	c #7E5038",
"{@	c #82553E",
"]@	c #5A3723",
"^@	c #925F41",
"/@	c #A66C48",
"(@	c #C08454",
"_@	c #B57C51",
":@	c #D5A672",
"<@	c #E4AF6F",
"[@	c #E2AB68",
"}@	c #D9A05E",
"|@	c #8A532F",
"1@	c #78452C",
"2@	c #7E4B31",
"3@	c #B98D66",
"4@	c #CBA06F",
"5@	c #CB9E6D",
"6@	c #31221F",
"7@	c #513F3D",
"8@	c #584442",
"9@	c #615051",
"0@	c #644944",
"a@	c #50342A",
"b@	c #392317",
"c@	c #44291D",
"d@	c #5A3828",
"e@	c #66412F",
"f@	c #65412E",
"g@	c #784F3C",
"h@	c #734A38",
"i@	c #5D3726",
"j@	c #73422A",
"k@	c #85533A",
"l@	c #582F1C",
"m@	c #854C2F",
"n@	c #A56642",
"o@	c #B67143",
"p@	c #AB6A3F",
"q@	c #AF764E",
"r@	c #DAA872",
"s@	c #E0AC69",
"t@	c #E7AF6C",
"u@	c #CC9156",
"v@	c #935D38",
"w@	c #AF7C52",
"x@	c #CD9E6C",
"y@	c #CEA06E",
"z@	c #42312E",
"A@	c #453332",
"B@	c #624D4D",
"C@	c #685758",
"D@	c #4B3736",
"E@	c #5A3F36",
"F@	c #422A21",
"G@	c #563829",
"H@	c #603B2B",
"I@	c #6F4633",
"J@	c #4E3123",
"K@	c #3E2116",
"L@	c #4A2515",
"M@	c #6B3821",
"N@	c #7B4328",
"O@	c #81452A",
"P@	c #612F16",
"Q@	c #824326",
"R@	c #A35B32",
"S@	c #AE6235",
"T@	c #8E5431",
"U@	c #613C28",
"V@	c #885C3B",
"W@	c #C99058",
"X@	c #E9B370",
"Y@	c #DCA768",
"Z@	c #AE7041",
"`@	c #BF8D5C",
" #	c #CC9969",
".#	c #C89664",
"+#	c #CC9B69",
"@#	c #503D3C",
"##	c #554242",
"$#	c #594B4D",
"%#	c #736364",
"&#	c #3F2E2B",
"*#	c #594139",
"=#	c #472A1D",
"-#	c #613F33",
";#	c #764D3D",
">#	c #6E422F",
",#	c #4C2A1C",
"'#	c #281712",
")#	c #3D1A0F",
"!#	c #35130A",
"~#	c #5D3929",
"{#	c #78452D",
"]#	c #7F4328",
"^#	c #70361B",
"/#	c #965939",
"(#	c #CB915A",
"_#	c #B48457",
":#	c #3F190C",
"<#	c #492014",
"[#	c #3E271D",
"}#	c #9E5E37",
"|#	c #DDA262",
"1#	c #E8B880",
"2#	c #C99462",
"3#	c #CA9662",
"4#	c #CC9966",
"5#	c #C69261",
"6#	c #C49061",
"7#	c #5C4847",
"8#	c #604D4C",
"9#	c #5B4948",
"0#	c #756160",
"a#	c #6B5653",
"b#	c #6D5550",
"c#	c #4F3127",
"d#	c #604036",
"e#	c #784F40",
"f#	c #513024",
"g#	c #613928",
"h#	c #2D1913",
"i#	c #250F09",
"j#	c #523529",
"k#	c #7C4F39",
"l#	c #794B36",
"m#	c #64321A",
"n#	c #A8714A",
"o#	c #DBAD76",
"p#	c #D6AD7C",
"q#	c #412417",
"r#	c #392017",
"s#	c #65402F",
"t#	c #BC7A49",
"u#	c #C08452",
"v#	c #EAC08B",
"w#	c #D2A274",
"x#	c #C18D5F",
"y#	c #CE9A67",
"z#	c #BF8A5D",
"A#	c #564340",
"B#	c #574442",
"C#	c #3E2D2A",
"D#	c #443432",
"E#	c #4E3A36",
"F#	c #523F3C",
"G#	c #5B4744",
"H#	c #63463C",
"I#	c #714737",
"J#	c #563326",
"K#	c #6A412F",
"L#	c #673D2A",
"M#	c #5C3E33",
"N#	c #5C4A45",
"O#	c #47312A",
"P#	c #6E4E3D",
"Q#	c #714A38",
"R#	c #5C3320",
"S#	c #A37250",
"T#	c #DAAA75",
"U#	c #CFA16E",
"V#	c #A8846A",
"W#	c #805B46",
"X#	c #8E593D",
"Y#	c #CA9669",
"Z#	c #D5A06B",
"`#	c #E3B684",
" $	c #EAC496",
".$	c #C29366",
"+$	c #CE9D6B",
"@$	c #D3A26F",
"#$	c #C59366",
"$$	c #635052",
"%$	c #614B48",
"&$	c #70544B",
"*$	c #6A504A",
"=$	c #624843",
"-$	c #3C2923",
";$	c #3C2C26",
">$	c #664A41",
",$	c #6F4534",
"'$	c #744E3F",
")$	c #794F3E",
"!$	c #7F513C",
"~$	c #7D5341",
"{$	c #72544A",
"]$	c #4A342C",
"^$	c #69493B",
"/$	c #684537",
"($	c #764F3C",
"_$	c #AE7A57",
":$	c #D0A173",
"<$	c #D7AA79",
"[$	c #C49B78",
"}$	c #AC7C5B",
"|$	c #C69162",
"1$	c #DBAA74",
"2$	c #D5AA7D",
"3$	c #C79B6E",
"4$	c #E7C292",
"5$	c #C39468",
"6$	c #CD9E6F",
"7$	c #D4A573",
"8$	c #CFA16F",
"9$	c #554343",
"0$	c #644C49",
"a$	c #4C3832",
"b$	c #422D26",
"c$	c #59423C",
"d$	c #4E3B35",
"e$	c #53413C",
"f$	c #674B44",
"g$	c #523328",
"h$	c #765448",
"i$	c #805748",
"j$	c #8D5B42",
"k$	c #926045",
"l$	c #7E5646",
"m$	c #624537",
"n$	c #6F4A38",
"o$	c #6D4C3D",
"p$	c #815A45",
"q$	c #AE7D5B",
"r$	c #D39C69",
"s$	c #DCB27E",
"t$	c #C2946C",
"u$	c #C08A5B",
"v$	c #D29E68",
"w$	c #E8BC88",
"x$	c #EBC593",
"y$	c #ECC593",
"z$	c #F1D1A4",
"A$	c #D8B187",
"B$	c #CEA271",
"C$	c #CA9C6B",
"D$	c #CD9F6E",
"E$	c #513F3F",
"F$	c #422E2B",
"G$	c #513A34",
"H$	c #5F453C",
"I$	c #5D443C",
"J$	c #402F2D",
"K$	c #554341",
"L$	c #624941",
"M$	c #67493F",
"N$	c #815D53",
"O$	c #764C3D",
"P$	c #905F47",
"Q$	c #6F4A39",
"R$	c #775241",
"S$	c #855337",
"T$	c #855A45",
"U$	c #946E57",
"V$	c #B08264",
"W$	c #D29D67",
"X$	c #E1B37F",
"Y$	c #D2A97E",
"Z$	c #E4B884",
"`$	c #E8BF8C",
" %	c #E4BB88",
".%	c #EEC999",
"+%	c #E5BD90",
"@%	c #D8AF88",
"#%	c #E5C099",
"$%	c #CCA073",
"%%	c #C79A6A",
"&%	c #CB9E70",
"*%	c #55413E",
"=%	c #644B46",
"-%	c #71554D",
";%	c #422E27",
">%	c #53392F",
",%	c #644D46",
"'%	c #5A433E",
")%	c #4E3B37",
"!%	c #72554C",
"~%	c #67473C",
"{%	c #7F5849",
"]%	c #7C5140",
"^%	c #6A4535",
"/%	c #5E3F33",
"(%	c #7D4F3B",
"_%	c #805039",
":%	c #87604C",
"<%	c #956D56",
"[%	c #AD8365",
"}%	c #DBAF7E",
"|%	c #D5A067",
"1%	c #E0B685",
"2%	c #CB9E6F",
"3%	c #EAC28F",
"4%	c #EBC596",
"5%	c #E7BF8F",
"6%	c #E2B88C",
"7%	c #A7744D",
"8%	c #C2926C",
"9%	c #C5956A",
"0%	c #C69666",
"a%	c #BD8E63",
"b%	c #6A4F49",
"c%	c #45322B",
"d%	c #6B5045",
"e%	c #614438",
"f%	c #5E4136",
"g%	c #49352E",
"h%	c #5E4941",
"i%	c #48322C",
"j%	c #604742",
"k%	c #7F5647",
"l%	c #7B5244",
"m%	c #765144",
"n%	c #604439",
"o%	c #56382E",
"p%	c #8B5B45",
"q%	c #4F3329",
"r%	c #382824",
"s%	c #4E372F",
"t%	c #6B4D3D",
"u%	c #AB8B71",
"v%	c #C89F78",
"w%	c #C89768",
"x%	c #C7A27A",
"y%	c #F0CD9D",
"z%	c #EDCA9C",
"A%	c #BA8A63",
"B%	c #D5A77B",
"C%	c #EFCDA3",
"D%	c #E4BF94",
"E%	c #CC9D6C",
"F%	c #C39466",
"G%	c #654C41",
"H%	c #76594E",
"I%	c #694E47",
"J%	c #856252",
"K%	c #866352",
"L%	c #7A5A48",
"M%	c #7D6155",
"N%	c #60453D",
"O%	c #926956",
"P%	c #6B4332",
"Q%	c #8E614F",
"R%	c #7C5542",
"S%	c #986B56",
"T%	c #59433A",
"U%	c #190E0A",
"V%	c #2D180F",
"W%	c #4F3022",
"X%	c #563A2E",
"Y%	c #CAA684",
"Z%	c #D3A476",
"`%	c #CBA681",
" &	c #F3D2A5",
".&	c #ECC998",
"+&	c #E7C69A",
"@&	c #C5966A",
"#&	c #E2B98A",
"$&	c #E9C291",
"%&	c #EAC398",
"&&	c #D09F6E",
"*&	c #C29061",
"=&	c #876453",
"-&	c #6C4E42",
";&	c #725342",
">&	c #987155",
",&	c #9E7057",
"'&	c #775545",
")&	c #8B644E",
"!&	c #8E6851",
"~&	c #9F795C",
"{&	c #9C735A",
"]&	c #92694F",
"^&	c #9E6F54",
"/&	c #8A6452",
"(&	c #825239",
"_&	c #A26C50",
":&	c #AB8167",
"<&	c #6B4D3E",
"[&	c #361A0F",
"}&	c #56392B",
"|&	c #A58167",
"1&	c #CEA57F",
"2&	c #D9A877",
"3&	c #C7A283",
"4&	c #EFD0A4",
"5&	c #EFD1A8",
"6&	c #CDA074",
"7&	c #D2A679",
"8&	c #D8A97A",
"9&	c #EFC998",
"0&	c #CA966B",
"a&	c #C79565",
"b&	c #BB855B",
"c&	c #674B3F",
"d&	c #8D634C",
"e&	c #BB8D66",
"f&	c #B48864",
"g&	c #A47654",
"h&	c #A17456",
"i&	c #7B533D",
"j&	c #A67C5C",
"k&	c #AC7C5A",
"l&	c #B18162",
"m&	c #9F7257",
"n&	c #9C7562",
"o&	c #A67553",
"p&	c #A36B4D",
"q&	c #B5825F",
"r&	c #A7795E",
"s&	c #966C55",
"t&	c #B78B6B",
"u&	c #BF8F67",
"v&	c #D0A072",
"w&	c #E4CAAA",
"x&	c #E5C399",
"y&	c #D3AA7D",
"z&	c #B98359",
"A&	c #AE7B56",
"B&	c #915937",
"C&	c #F2CFA1",
"D&	c #F5D2A4",
"E&	c #D3A576",
"F&	c #BA8558",
"G&	c #6E4F42",
"H&	c #976D52",
"I&	c #AD7D5A",
"J&	c #A97652",
"K&	c #CCA176",
"L&	c #C2956A",
"M&	c #C4986D",
"N&	c #A77553",
"O&	c #A37253",
"P&	c #BF936F",
"Q&	c #BF8D64",
"R&	c #BA8D69",
"S&	c #9E725D",
"T&	c #BA8B69",
"U&	c #B9835C",
"V&	c #BF8C5F",
"W&	c #A27352",
"X&	c #623F2C",
"Y&	c #7C5944",
"Z&	c #A88062",
"`&	c #D9B38A",
" *	c #EFD5B0",
".*	c #FAE5C3",
"+*	c #F2DAB5",
"@*	c #C49468",
"#*	c #BC8358",
"$*	c #B57D54",
"%*	c #CA986D",
"&*	c #D5AB7F",
"**	c #EDC798",
"=*	c #CD9D6C",
"-*	c #AA734D",
";*	c #87614B",
">*	c #84614F",
",*	c #B48762",
"'*	c #B1815E",
")*	c #DCB07D",
"!*	c #DAB07C",
"~*	c #C79A6D",
"{*	c #A17150",
"]*	c #B2815B",
"^*	c #D6AA7F",
"/*	c #D3A579",
"(*	c #CB9E72",
"_*	c #C99B72",
":*	c #B17E57",
"<*	c #BF8D60",
"[*	c #AB7F5D",
"}*	c #AA8569",
"|*	c #D8BB98",
"1*	c #F9E5C2",
"2*	c #FAE9C8",
"3*	c #FBEAC5",
"4*	c #BF9D81",
"5*	c #AE744E",
"6*	c #B17248",
"7*	c #835031",
"8*	c #C18F63",
"9*	c #BF8A5E",
"0*	c #EAC191",
"a*	c #DAAE80",
"b*	c #B0734B",
"c*	c #BA926E",
"d*	c #977153",
"e*	c #A87955",
"f*	c #C29569",
"g*	c #C8996B",
"h*	c #D8A975",
"i*	c #D9AD77",
"j*	c #DDB481",
"k*	c #CCA071",
"l*	c #C18F62",
"m*	c #C49569",
"n*	c #DEB686",
"o*	c #E0B987",
"p*	c #DEB583",
"q*	c #DAAE7B",
"r*	c #D5A778",
"s*	c #D2A271",
"t*	c #D5A775",
"u*	c #DBB58E",
"v*	c #F9E7C3",
"w*	c #FAE7C4",
"x*	c #F8E2BE",
"y*	c #E4CBA6",
"z*	c #B1754F",
"A*	c #B4764C",
"B*	c #A6663F",
"C*	c #955F3C",
"D*	c #D9A777",
"E*	c #CB9969",
"F*	c #C39266",
"G*	c #AA6E49",
"H*	c #C19469",
"I*	c #C79A6B",
"J*	c #BE9167",
"K*	c #B58760",
"L*	c #CEA274",
"M*	c #CA9B6D",
"N*	c #D8AA73",
"O*	c #E4BC87",
"P*	c #E2BD8F",
"Q*	c #D4A777",
"R*	c #D1A579",
"S*	c #D9AF7D",
"T*	c #EAC493",
"U*	c #E9C38F",
"V*	c #E7C091",
"W*	c #E1B37E",
"X*	c #DEB27C",
"Y*	c #E1B580",
"Z*	c #E7BE8E",
"`*	c #EECEA7",
" =	c #FCE3BE",
".=	c #F0D7B1",
"+=	c #AF8563",
"@=	c #935D3E",
"#=	c #A66C49",
"$=	c #B17044",
"%=	c #C8915F",
"&=	c #D2A06E",
"*=	c #EAC08E",
"==	c #E8C18F",
"-=	c #BA8559",
";=	c #AB724B",
">=	c #A37654",
",=	c #B6885F",
"'=	c #B98A5E",
")=	c #CDA377",
"!=	c #CFA274",
"~=	c #D0A06E",
"{=	c #DDB382",
"]=	c #DDB586",
"^=	c #D8B080",
"/=	c #D5A877",
"(=	c #DAAC77",
"_=	c #E4BA85",
":=	c #E7C08D",
"<=	c #E6BD88",
"[=	c #DDAE77",
"}=	c #E6B980",
"|=	c #E3BE94",
"1=	c #EFD0A7",
"2=	c #BA8F68",
"3=	c #C08F68",
"4=	c #7E4426",
"5=	c #A26E4D",
"6=	c #A7693F",
"7=	c #D6A26A",
"8=	c #D09C64",
"9=	c #CD9B6B",
"0=	c #D4AA7F",
"a=	c #AE7651",
"b=	c #945D3D",
"c=	c #9A6D4E",
"d=	c #A57552",
"e=	c #A97955",
"f=	c #BD8B61",
"g=	c #D5AB79",
"h=	c #DFBB8B",
"i=	c #D4A97C",
"j=	c #C79668",
"k=	c #C39161",
"l=	c #DBAB76",
"m=	c #D9AB77",
"n=	c #DCB383",
"o=	c #E2BB8B",
"p=	c #DCAF7C",
"q=	c #DCAC78",
"r=	c #EAC18B",
"s=	c #E7BD87",
"t=	c #E7BA7F",
"u=	c #EEC995",
"v=	c #F1D2A8",
"w=	c #DFB686",
"x=	c #C49368",
"y=	c #B8835D",
"z=	c #AF7651",
"A=	c #AA7047",
"B=	c #C99565",
"C=	c #D7A46B",
"D=	c #D3A06B",
"E=	c #C59D77",
"F=	c #9E6947",
"G=	c #8E5E42",
"H=	c #9E6D4E",
"I=	c #A16D4C",
"J=	c #95684A",
"K=	c #A27351",
"L=	c #B68359",
"M=	c #C79967",
"N=	c #D5AA77",
"O=	c #D3A572",
"P=	c #D2A272",
"Q=	c #CE9E6C",
"R=	c #D9AA78",
"S=	c #D8A973",
"T=	c #DAAD7A",
"U=	c #D3A371",
"V=	c #D1A06F",
"W=	c #D9A873",
"X=	c #E6BE8C",
"Y=	c #E4B880",
"Z=	c #E6BC82",
"`=	c #EDC997",
" -	c #D9B282",
".-	c #C49670",
"+-	c #AF7955",
"@-	c #BF8A5F",
"#-	c #BD8456",
"$-	c #D2A06F",
"%-	c #DFAE77",
"&-	c #AC744B",
"*-	c #AF7E58",
"=-	c #9D6F50",
"--	c #8A5B40",
";-	c #B07D58",
">-	c #AA7856",
",-	c #99684A",
"'-	c #8B5C40",
")-	c #A26F4E",
"!-	c #AF7C56",
"~-	c #B17B52",
"{-	c #BB8454",
"]-	c #CE9D6C",
"^-	c #D4A571",
"/-	c #D8AA77",
"(-	c #DAAC79",
"_-	c #DCAF7E",
":-	c #D7A973",
"<-	c #D9A872",
"[-	c #CA9867",
"}-	c #D6A471",
"|-	c #E4BB87",
"1-	c #E8BD84",
"2-	c #DFB27E",
"3-	c #D5AB7E",
"4-	c #B98B63",
"5-	c #B9885E",
"6-	c #BE8456",
"7-	c #C99264",
"8-	c #E1B078",
"9-	c #D6A46D",
"0-	c #A7744E",
"a-	c #B17F5C",
"b-	c #A97654",
"c-	c #A67858",
"d-	c #C99A6B",
"e-	c #C39265",
"f-	c #AE7C57",
"g-	c #A87453",
"h-	c #BB8B64",
"i-	c #BD8E65",
"j-	c #C49465",
"k-	c #BD8354",
"l-	c #C18657",
"m-	c #D7A876",
"n-	c #D4A270",
"o-	c #DCAD78",
"p-	c #D3A269",
"q-	c #DBAA71",
"r-	c #D2A16B",
"s-	c #D4A16D",
"t-	c #E0B17B",
"u-	c #E0B37B",
"v-	c #E2B780",
"w-	c #E0B27C",
"x-	c #D3A272",
"y-	c #D6AB7E",
"z-	c #C08F63",
"A-	c #CE9C6E",
"B-	c #C99667",
"C-	c #DCA974",
"D-	c #99694B",
"E-	c #966748",
"F-	c #A06F4F",
"G-	c #A47454",
"  . + + @ # $ % & * = - ; > , ' ) ! ~ { ] ^ / ( _ : < [ } | 1 ] ",
"2 3 4 5 6 7 8 9 0 a b c d e f g h i j k l m n o p q r s < [ t u ",
"v w x y z A B C D E F G H I J K L M N O P Q Q R S T T U V W X Y ",
"Z `  ...+.@.#.$.%., &.*.=.-.;.>.,.'.).!.~.{.].^./.(._.:.<.[.}.|.",
"1.2.3.4.5.6.7.8.9.0.a.b.c.d.e.f.g.h.i.j.k.l.m.n.b o.p.q.r.s.t.u.",
"v.w.x.y.z.A.B.C.D.E.F.G.H.I.J.K.L.M.N.O.P.Q.0 R.S.T.U.V.W.X.Y.0 ",
"Z.`. +.+++@+#+$+%+&+*+=+-+;+>+,+'+)+!+~+{+]+^+/+(+_+:+<+[+}+|+1+",
"2+3+4+5+6+7+8+9+0+a+b+c+d+e+f+g+h+i+j+k+l+m+n+o+p+q+r+s+t+u+v+w+",
"x+y+z+A+B+C+D+E+F+G+H+I+J+K+L+M+N+O+P+Q+R+S+T+U+V+W+X+Y+Z+`+ @.@",
"+@@@#@$@%@&@*@=@-@;@>@,@'@)@!@~@{@]@^@/@(@_@:@<@[@}@|@1@2@3@4@5@",
"6@7@8@9@0@a@b@c@d@e@f@g@h@i@j@k@2@l@m@n@o@p@q@r@s@t@u@v@w@T x@y@",
"z@A@B@C@D@E@F@G@H@I@i@J@K@L@M@N@O@P@Q@R@S@T@U@V@W@X@Y@Z@`@ #.#+#",
"@###$#%#&#*#=#-#;#>#,#'#)#!#~#{#]#^#/#(#_#:#<#[#}#|#1#2#3#4#5#6#",
"7#8#9#0#a#b#c#d#e#f#g#G+h#i#j#k#l#m#n#o#p#q#r#s#t#u#v#w#x#y#4#z#",
"A#B#C#D#E#F#G#H#I#J#K#L#M#N#O#P#Q#R#S#T#U#V#W#X#Y#Z#`# $.$+$@$#$",
"$$%$&$*$=$-$;$>$,$'$)$!$~${$]$^$/$($_$:$<$[$}$|$1$2$3$4$5$6$7$8$",
"9$0$a$b$c$d$e$f$g$h$i$j$k$l$m$n$o$p$q$r$s$t$u$v$w$x$y$z$A$B$C$D$",
"E$F$G$H$I$J$K$L$M$N$O$P$h.Q$R$S$T$U$V$W$X$Y$Z$`$ %.%+%@%#%$%%%&%",
"*%=%-%;%>%,%'%)%!%~%{%]%^%/%(%_%:%<%[%}%|%1%2%3%4%5%6%7%8%9%0%a%",
"b%c%d%e%f%g%h%i%j%k%l%m%n%o%p%q%r%s%t%u%v%w%x%y%k.z%A%B%C%D%E%F%",
"G%H%I%J%K%L%M%m$N%O%P%Q%H$R%S%T%U%V%W%X%Y%Z%`% &.&+&@&#&$&%&&&*&",
"=&-&;&>&,&'&)&!&~&{&]&^&/&(&_&:&<&[&}&|&1&2&3&4&5&6&7&8&9&0&a&b&",
"c&d&<%e&f&g&h&i&j&k&l&m&n&o&p&q&r&^$s&t&u&v&w&x&y&z&A&B&C&D&E&F&",
"G&H&I&J&K&L&M&N&O&P&Q&R&S&T&U&V&W&X&Y&Z&`& *.*+*@*#*$*%*&***=*-*",
";*>*,*'*. )*!*~*{*]*^*/*(*d _*:*<*[*}*|*1*2*3*4*5*6*7*8*9*0*a*b*",
"c*d*e*f*g*h*i*j*k*l*m*n*o*p*q*r*s*t*u*v*w*x*y*z*A*B*C*8*D*E*F*G*",
"H*I*J*K*L*M*N*O*P*Q*R*S*T*U*V*W*X*Y*Z*`* =.=+=@=#=$=%=&=*===-=;=",
">=,='=&%)=!=W ~={=]=^=/=(=_=:=<=[=}=<=|=1=2=3=4=5=6=7=8=9=0=a=b=",
"c=d=e=f=g=h=i=j=k=l=m=n=o=p=q=r=s=t=u=v=w=x=y=z=A=B=C=D=(*E=F=G=",
"H=I=J=K=L=M=N=O=P=Q=R=S=T=U=V=W=X=Y=Z=`= -.-+-@-#-$-%-&-*-&.=---",
";->-,-'-)-!-~-{-]-^-/-(-_-:-<-[-}-|-1-s=2-3-4-5-6-7-8-9-0-a-b-c-",
"d-d-e-f-g-h-i-j-k-l-m-n-o-p-q-r-s-t-u-v-w-x-y-z-A-B-C-n-D-E-F-G-"};
