/* XPM */
static char * C:\Users\hongl\Downloads\chta_32x32_xpm[] = {
"32 32 451 2",
"  	c None",
". 	c #E3AC31",
"+ 	c #DDAA30",
"@ 	c #DBA730",
"# 	c #DAA630",
"$ 	c #DBA530",
"% 	c #E0A631",
"& 	c #F7B233",
"* 	c #DCB02F",
"= 	c #B4A82B",
"- 	c #9BA02B",
"; 	c #849629",
"> 	c #758D29",
", 	c #6A8529",
"' 	c #657F2A",
") 	c #667A29",
"! 	c #6F7829",
"~ 	c #857C2A",
"{ 	c #9F842B",
"] 	c #CD9A2F",
"^ 	c #F5B033",
"/ 	c #DEB22E",
"( 	c #ACAE28",
"_ 	c #7CA427",
": 	c #709B28",
"< 	c #679228",
"[ 	c #608A28",
"} 	c #588229",
"| 	c #517B29",
"1 	c #4B7529",
"2 	c #456E28",
"3 	c #3F6827",
"4 	c #3A6227",
"5 	c #365E26",
"6 	c #365A25",
"7 	c #837228",
"8 	c #D0992E",
"9 	c #EDB430",
"0 	c #BBB528",
"a 	c #8DAE24",
"b 	c #78A426",
"c 	c #6F9B28",
"d 	c #5F8928",
"e 	c #4B7428",
"f 	c #406827",
"g 	c #305825",
"h 	c #2C5424",
"i 	c #245023",
"j 	c #455523",
"k 	c #957728",
"l 	c #E3A531",
"m 	c #E5B42F",
"n 	c #ABB625",
"o 	c #83AE23",
"p 	c #79A426",
"q 	c #6F9A28",
"r 	c #4A7429",
"s 	c #3F6727",
"t 	c #355D26",
"u 	c #295023",
"v 	c #254D22",
"w 	c #224A21",
"x 	c #1E4720",
"y 	c #6F6224",
"z 	c #D89E2F",
"A 	c #E6B42F",
"B 	c #A5B624",
"C 	c #82AE23",
"D 	c #517A29",
"E 	c #4A7328",
"F 	c #456D28",
"G 	c #406727",
"H 	c #3A6226",
"I 	c #355E25",
"J 	c #285023",
"K 	c #244D22",
"L 	c #214A21",
"M 	c #204720",
"N 	c #1E4520",
"O 	c #17421F",
"P 	c #655B22",
"Q 	c #D89D2F",
"R 	c #ECB430",
"S 	c #AAB625",
"T 	c #81AE23",
"U 	c #6F9928",
"V 	c #679128",
"W 	c #204721",
"X 	c #1C431F",
"Y 	c #1A411F",
"Z 	c #15401E",
"` 	c #6B5E22",
" .	c #E2A330",
"..	c #B9B428",
"+.	c #669128",
"@.	c #578229",
"#.	c #507A29",
"$.	c #446D28",
"%.	c #3A6126",
"&.	c #355D25",
"*.	c #2F5825",
"=.	c #2D5123",
"-.	c #315022",
";.	c #2E4D21",
">.	c #234720",
",.	c #1A411E",
"'.	c #17401E",
").	c #8F7125",
"!.	c #EAA931",
"~.	c #DCB22E",
"{.	c #8CAD25",
"].	c #78A326",
"^.	c #6E9928",
"/.	c #5E8929",
"(.	c #578129",
"_.	c #487329",
":.	c #416C28",
"<.	c #3C6627",
"[.	c #366126",
"}.	c #315C26",
"|.	c #2B5725",
"1.	c #275324",
"2.	c #255023",
"3.	c #AC852B",
"4.	c #ECAB32",
"5.	c #DCA130",
"6.	c #625C23",
"7.	c #15421F",
"8.	c #12401F",
"9.	c #12401E",
"0.	c #3A4A20",
"a.	c #CB952D",
"b.	c #F6B233",
"c.	c #A8AD28",
"d.	c #77A326",
"e.	c #5E8828",
"f.	c #4E7428",
"g.	c #847F2A",
"h.	c #847C29",
"i.	c #837829",
"j.	c #827529",
"k.	c #807228",
"l.	c #7F7027",
"m.	c #7E6E27",
"n.	c #846F26",
"o.	c #EBAA31",
"p.	c #F9B233",
"q.	c #DA9E2F",
"r.	c #816925",
"s.	c #7C6624",
"t.	c #7C6623",
"u.	c #4E5121",
"v.	c #726324",
"w.	c #F2AE32",
"x.	c #D8AF2F",
"y.	c #7AA327",
"z.	c #97862B",
"A.	c #EEAC32",
"B.	c #F6B033",
"C.	c #F8B133",
"D.	c #8C7026",
"E.	c #1E4620",
"F.	c #C2912C",
"G.	c #B1A62B",
"H.	c #669028",
"I.	c #507929",
"J.	c #497328",
"K.	c #6B7228",
"L.	c #807729",
"M.	c #B8902D",
"N.	c #F4AF32",
"O.	c #F8B233",
"P.	c #D79D2F",
"Q.	c #344B21",
"R.	c #214921",
"S.	c #947728",
"T.	c #989D2A",
"U.	c #659028",
"V.	c #7B802A",
"W.	c #A88D2D",
"X.	c #A88B2C",
"Y.	c #A6882C",
"Z.	c #F1AE32",
"`.	c #D79C2F",
" +	c #A78029",
".+	c #997727",
"++	c #997827",
"@+	c #977727",
"#+	c #615C23",
"$+	c #244C22",
"%+	c #746926",
"&+	c #E2AC31",
"*+	c #819429",
"=+	c #4F7929",
"-+	c #4B7328",
";+	c #BB952E",
">+	c #E2A631",
",+	c #E3A631",
"'+	c #F3AF33",
")+	c #DB9F2F",
"!+	c #545421",
"~+	c #073F1F",
"{+	c #0A3F1E",
"]+	c #0B3F1F",
"^+	c #0C401F",
"/+	c #0E411F",
"(+	c #11431F",
"_+	c #134420",
":+	c #1E4921",
"<+	c #5B6126",
"[+	c #DBA130",
"}+	c #DCA830",
"|+	c #728B29",
"1+	c #568029",
"2+	c #597629",
"3+	c #597128",
"4+	c #576C28",
"5+	c #556827",
"6+	c #8D7B29",
"7+	c #EFAC32",
"8+	c #957527",
"9+	c #0E401F",
"0+	c #1B421F",
"a+	c #1E451F",
"b+	c #1F4620",
"c+	c #4E6126",
"d+	c #D79F30",
"e+	c #D9A630",
"f+	c #668329",
"g+	c #4E7929",
"h+	c #637829",
"i+	c #D5A130",
"j+	c #DAA230",
"k+	c #D9A130",
"l+	c #E6A831",
"m+	c #FAB233",
"n+	c #D0982D",
"o+	c #2F461F",
"p+	c #19411E",
"q+	c #2C5524",
"r+	c #325B25",
"s+	c #496527",
"t+	c #D49F30",
"u+	c #D8A430",
"v+	c #627D29",
"w+	c #467228",
"x+	c #8F832B",
"y+	c #CD9A2E",
"z+	c #CC982E",
"A+	c #D79E2F",
"B+	c #F1AD32",
"C+	c #886D25",
"D+	c #1F4720",
"E+	c #396126",
"F+	c #4F6C28",
"G+	c #DBA430",
"H+	c #647829",
"I+	c #436C27",
"J+	c #406627",
"K+	c #526727",
"L+	c #546526",
"M+	c #4E5F26",
"N+	c #9C7F2A",
"O+	c #D59B2E",
"P+	c #404B1F",
"Q+	c #285123",
"R+	c #396127",
"S+	c #416927",
"T+	c #5E7729",
"U+	c #DFA631",
"V+	c #6D7629",
"W+	c #3C6527",
"X+	c #6D7028",
"Y+	c #E8AA31",
"Z+	c #AF842A",
"`+	c #003D1E",
" @	c #063E1E",
".@	c #063F1F",
"+@	c #08401F",
"@@	c #09411F",
"#@	c #0C421F",
"$@	c #0F4520",
"%@	c #114721",
"&@	c #164A22",
"*@	c #265022",
"=@	c #2D5524",
"-@	c #335B25",
";@	c #70832A",
">@	c #DEA830",
",@	c #847A2A",
"'@	c #376026",
")@	c #646A27",
"!@	c #8E7829",
"~@	c #8D7628",
"{@	c #8C7427",
"]@	c #917527",
"^@	c #E1A330",
"/@	c #B2872A",
"(@	c #AC8229",
"_@	c #AC8329",
":@	c #AC832A",
"<@	c #AC842A",
"[@	c #AD852A",
"}@	c #AD862B",
"|@	c #AD872B",
"1@	c #5E6326",
"2@	c #315B25",
"3@	c #547E29",
"4@	c #8B912B",
"5@	c #E6AC31",
"6@	c #9F832B",
"7@	c #335C25",
"8@	c #2E5724",
"9@	c #355524",
"0@	c #837027",
"a@	c #977828",
"b@	c #DCA02F",
"c@	c #E8A931",
"d@	c #536427",
"e@	c #416A27",
"f@	c #618A29",
"g@	c #A99F2B",
"h@	c #CF9B2F",
"i@	c #365824",
"j@	c #2A5323",
"k@	c #676425",
"l@	c #ECAA32",
"m@	c #F3AF32",
"n@	c #F6B032",
"o@	c #A1842B",
"p@	c #426A28",
"q@	c #618B28",
"r@	c #719A27",
"s@	c #D1AC2E",
"t@	c #867428",
"u@	c #234F22",
"v@	c #294D22",
"w@	c #344D22",
"x@	c #324920",
"y@	c #344820",
"z@	c #3A4A1F",
"A@	c #8A6F25",
"B@	c #F2AD32",
"C@	c #9D7A28",
"D@	c #3D4D21",
"E@	c #3D4F21",
"F@	c #3F5122",
"G@	c #405423",
"H@	c #435724",
"I@	c #455B25",
"J@	c #466026",
"K@	c #3D6326",
"L@	c #426A27",
"M@	c #4A7428",
"N@	c #557F29",
"O@	c #6E9A27",
"P@	c #A0AB27",
"Q@	c #F5B232",
"R@	c #D29B2F",
"S@	c #495523",
"T@	c #214821",
"U@	c #1D441F",
"V@	c #1A421F",
"W@	c #1D411E",
"X@	c #A98129",
"Y@	c #D39A2E",
"Z@	c #5C5922",
"`@	c #204A21",
" #	c #709A27",
".#	c #88AC25",
"+#	c #DBB32D",
"@#	c #9A7928",
"##	c #1D4620",
"$#	c #23441F",
"%#	c #274520",
"&#	c #264720",
"*#	c #214720",
"=#	c #295123",
"-#	c #345B26",
";#	c #618C28",
">#	c #709B27",
",#	c #81AC24",
"'#	c #B8B827",
")#	c #F0B431",
"!#	c #E6A630",
"~#	c #7C6825",
"{#	c #15411F",
"]#	c #2D5624",
"^#	c #345C25",
"/#	c #426B28",
"(#	c #4B7528",
"_#	c #628C28",
":#	c #81AD24",
"<#	c #A8BA24",
"[#	c #EBB530",
"}#	c #706023",
"|#	c #14401E",
"1#	c #2E5624",
"2#	c #345C26",
"3#	c #436B27",
"4#	c #628D28",
"5#	c #719C27",
"6#	c #A6BA24",
"7#	c #E5B62F",
"8#	c #DCA12F",
"9#	c #7E6824",
"0#	c #18411E",
"a#	c #295223",
"b#	c #345D25",
"c#	c #3B6327",
"d#	c #436B28",
"e#	c #82AD24",
"f#	c #ABBB24",
"g#	c #E7A730",
"h#	c #9C7928",
"i#	c #494F21",
"j#	c #16421F",
"k#	c #2A5223",
"l#	c #4C7528",
"m#	c #578029",
"n#	c #638D28",
"o#	c #719D27",
"p#	c #8CAD24",
"q#	c #BCB827",
"r#	c #ECB530",
"s#	c #D39B2E",
"t#	c #8B7026",
"u#	c #2C4A21",
"v#	c #234A21",
"w#	c #2A5224",
"x#	c #436C28",
"y#	c #578128",
"z#	c #749D27",
"A#	c #AAAD28",
"B#	c #DDB32E",
"C#	c #A07E29",
"D#	c #827027",
"E#	c #686826",
"F#	c #5C6727",
"G#	c #596B28",
"H#	c #5D7128",
"I#	c #697C2A",
"J#	c #7B872A",
"K#	c #95952B",
"L#	c #B1A22C",
"M#	c #DAAE2F",
"N#	c #E0A431",
"O#	c #D8A130",
"P#	c #D9A330",
"Q#	c #DCA630",
"R#	c #E2AA30",
"                          . + @ # $ %                           ",
"                  & * = - ; > , ' ) ! ~ { ] ^                   ",
"                / ( _ : < [ } | 1 2 3 4 5 6 7 8                 ",
"            9 0 a b c < d } | e 2 f 4 5 g h i j k l             ",
"          m n o p q < d } | r 2 s 4 t g h u v w x y z           ",
"        A B C p q < d } D E F G H I g h J K L M N O P Q         ",
"      R S T b U V d } D r F s H t g h J K L W N X Y Z `  .      ",
"      ..C b U +.d @.#.E $.s %.&.*.h =.-.;.>.N X Y ,.,.'.).!.    ",
"    ~.{.].^.+./.(.#._.:.<.[.}.|.1.2.3.4.5.6.7.8.9.9.9.8.0.a.    ",
"  b.c.d.^.+.e.(.#.f.g.h.i.j.k.l.m.n.o.p.q.r.s.t.t.t.s.s.u.v.w.  ",
"  x.y.^.+.e.(.#._.z.A.A.B.C.C.C.C.C.p.p.p.C.C.C.C.C.C.B.D.E.F.  ",
"  G.^.H.e.(.I.J.$.K.L.M.N.p.p.p.p.p.O.C.C.C.C.C.C.C.p.P.Q.R.S.  ",
"  T.U.e.(.I.V.W.X.Y.M.Z.p.p.p.p.B.`. +.+.+.+.+.+.+++@+#+R.$+%+l ",
"&+*+e.(.=+-+;+>+,+'+p.p.p.p.p.p.)+!+~+{+{+{+]+^+/+(+_+:+$+J <+[+",
"}+|+1+=+2+3+4+5+6+7+p.p.p.p.p.B.8+9+,.,.,.Y 0+X a+b+R.$+J h c+d+",
"e+f+g+h+i+j+k+k+l+p.p.p.p.p.m+n+o+p+,.,.Y 0+X N b+R.$+J q+r+s+t+",
"u+v+w+x+] y+z+A+p.p.p.p.p.p.B+C+,.,.,.Y 0+X a+D+R.$+J q+r+E+F+i+",
"G+H+I+J+K+L+M+N+C.p.p.p.p.p.O+P+,.,.Y 0+X N D+R.$+Q+q+r+R+S+T+u+",
"U+V+W+X+Y+7+A.B+p.p.p.p.p.O.Z+`+ @.@+@@@#@$@%@&@*@=@-@R+S+J.;@>@",
"  ,@'@)@!@~@{@]@w.p.p.p.p.p.^@/@(@(@_@:@<@[@}@|@1@2@E+S+J.3@4@5@",
"  6@7@8@9@0@a@a@b@m+p.p.p.p.p.p.O.O.O.O.O.O.p.c@d@E+e@E 3@f@g@  ",
"  h@i@j@k@5.l@l@A.w.w.w.m@C.p.n@w.w.m@m@m@m@7+o@H p@E 3@q@r@s@  ",
"  B.t@u@v@w@Q.x@y@z@z@z@A@B@B.C@D@E@F@G@H@I@J@K@L@M@N@q@O@P@Q@  ",
"    R@S@T@E.U@V@p+p+p+W@X@l Y@Z@D+`@K Q+=@7@4 p@e N@q@ #.#+#    ",
"      @###U@0+,.,.,.,.Y $#%#&#*#L K =#=@-#4 L@e N@;#>#,#'#)#    ",
"      !#~#{#,.,.,.,.Y 0+X N M L K =#]#^#4 /#(#N@_#>#:#<#[#      ",
"        b@}#|#,.,.Y 0+X N M w v =#1#2#4 3#(#1+4#5#:#6#7#        ",
"          8#9#0#Y 0+X N M w v a#1#b#c#d#(#1+4#5#e#f#7#          ",
"            g#h#i#j#N M w v k#1#2#c#3#l#m#n#o#p#q#r#            ",
"                s#t#u#v#v w#1#&.c#x#l#y#n#z#A#B#                ",
"                  B.s#C#D#E#F#G#H#I#J#K#L#M#b.                  ",
"                          N#j+O#P#Q#R#                          "};
