/* XPM */
static char * C:\Users\hongl\Downloads\chta_64x64_xpm[] = {
"64 64 666 2",
"  	c None",
". 	c #F9B233",
"+ 	c #F8B233",
"@ 	c #F5B132",
"# 	c #E6AE31",
"$ 	c #D9A930",
"% 	c #CBA52E",
"& 	c #C3A02E",
"* 	c #BF9D2E",
"= 	c #BE9C2E",
"- 	c #C09C2E",
"; 	c #C69E2F",
"> 	c #D3A22F",
", 	c #E1A831",
"' 	c #F2AF32",
") 	c #F5B232",
"! 	c #DDAF2F",
"~ 	c #BDA82C",
"{ 	c #98A02A",
"] 	c #759728",
"^ 	c #699228",
"/ 	c #648E28",
"( 	c #608A28",
"_ 	c #5C8629",
": 	c #588329",
"< 	c #557E29",
"[ 	c #517B29",
"} 	c #4E7829",
"| 	c #4B7528",
"1 	c #497128",
"2 	c #4F7128",
"3 	c #797B29",
"4 	c #A88B2C",
"5 	c #CF9D2F",
"6 	c #F0AD32",
"7 	c #E3B22F",
"8 	c #B7AD2A",
"9 	c #86A626",
"0 	c #75A027",
"a 	c #709B28",
"b 	c #6B9628",
"c 	c #689228",
"d 	c #588229",
"e 	c #547E29",
"f 	c #487128",
"g 	c #456E28",
"h 	c #426B27",
"i 	c #406827",
"j 	c #3D6527",
"k 	c #3A6227",
"l 	c #496427",
"m 	c #967F2A",
"n 	c #D29D2F",
"o 	c #F6B033",
"p 	c #DBB32D",
"q 	c #A3AF26",
"r 	c #7FA925",
"s 	c #79A426",
"t 	c #74A027",
"u 	c #679228",
"v 	c #4B7428",
"w 	c #386026",
"x 	c #355D26",
"y 	c #335B25",
"z 	c #315925",
"A 	c #696927",
"B 	c #C3942D",
"C 	c #F4AF32",
"D 	c #E3B42E",
"E 	c #A6B425",
"F 	c #84AE23",
"G 	c #7EA925",
"H 	c #638E28",
"I 	c #5F8A28",
"J 	c #4E7729",
"K 	c #3F6727",
"L 	c #305925",
"M 	c #2E5624",
"N 	c #2C5424",
"O 	c #2B5223",
"P 	c #646425",
"Q 	c #CC982E",
"R 	c #F8B133",
"S 	c #F3B331",
"T 	c #BEB727",
"U 	c #8AB422",
"V 	c #83AE23",
"W 	c #749F27",
"X 	c #6F9B28",
"Y 	c #2A5223",
"Z 	c #285123",
"` 	c #264F22",
" .	c #264D22",
"..	c #897327",
"+.	c #E7A831",
"@.	c #E4B52E",
"#.	c #9FB823",
"$.	c #88B422",
"%.	c #6F9A28",
"&.	c #5F8928",
"*.	c #4D7729",
"=.	c #305825",
"-.	c #285023",
";.	c #274F22",
">.	c #244D22",
",.	c #234B21",
"'.	c #224A21",
").	c #485423",
"!.	c #CA962E",
"~.	c #D3B72B",
"{.	c #91B921",
"].	c #426A27",
"^.	c #295023",
"/.	c #214821",
"(.	c #204720",
"_.	c #244720",
":.	c #A9822A",
"<.	c #C8B928",
"[.	c #8EB921",
"}.	c #638D28",
"|.	c #5B8629",
"1.	c #4A7428",
"2.	c #477128",
"3.	c #3A6226",
"4.	c #376026",
"5.	c #264E22",
"6.	c #1F4620",
"7.	c #1E4520",
"8.	c #1D441F",
"9.	c #927527",
"0.	c #F2AE32",
"a.	c #C1B927",
"b.	c #8DB821",
"c.	c #749E27",
"d.	c #5B8529",
"e.	c #578229",
"f.	c #517A29",
"g.	c #456D28",
"h.	c #214A21",
"i.	c #1C431F",
"j.	c #1B421F",
"k.	c #856D25",
"l.	c #C7B928",
"m.	c #88B322",
"n.	c #82AE23",
"o.	c #7DA925",
"p.	c #739E27",
"q.	c #679128",
"r.	c #477028",
"s.	c #3D6427",
"t.	c #2B5424",
"u.	c #1A411F",
"v.	c #1A411E",
"w.	c #8D7126",
"x.	c #D2B72B",
"y.	c #87B322",
"z.	c #78A326",
"A.	c #6F9928",
"B.	c #3C6427",
"C.	c #375F26",
"D.	c #A27D28",
"E.	c #E2B52E",
"F.	c #90B821",
"G.	c #6B9528",
"H.	c #345D26",
"I.	c #325B25",
"J.	c #204821",
"K.	c #1E421E",
"L.	c #C3912C",
"M.	c #F2B331",
"N.	c #9CB822",
"O.	c #82AD23",
"P.	c #669128",
"Q.	c #3A6126",
"R.	c #1F4720",
"S.	c #3A4A1F",
"T.	c #E2A430",
"U.	c #BAB627",
"V.	c #87B222",
"W.	c #6E9928",
"X.	c #628D28",
"Y.	c #578129",
"Z.	c #537D29",
"`.	c #507A29",
" +	c #446D28",
".+	c #416A27",
"++	c #325A25",
"@+	c #2F5825",
"#+	c #284F22",
"$+	c #274E22",
"%+	c #264C22",
"&+	c #254B21",
"*+	c #244921",
"=+	c #214720",
"-+	c #796624",
";+	c #E0B42E",
">+	c #88B222",
",+	c #82AD24",
"'+	c #7DA825",
")+	c #6A9528",
"!+	c #5E8929",
"~+	c #396126",
"{+	c #345D25",
"]+	c #2E5022",
"^+	c #D49D2F",
"/+	c #E6A731",
"(+	c #E5A631",
"_+	c #766725",
":+	c #1C421F",
"<+	c #BD8E2C",
"[+	c #F7B232",
"}+	c #A2B225",
"|+	c #5E8928",
"1+	c #5A8529",
"2+	c #4A7328",
"3+	c #396127",
"4+	c #867127",
"5+	c #E3A530",
"6+	c #2A4820",
"7+	c #4C5221",
"8+	c #EFAC32",
"9+	c #D6B22D",
"0+	c #4D7629",
"a+	c #2D5624",
"b+	c #D29B2F",
"c+	c #A47F29",
"d+	c #B0862A",
"e+	c #9DAE26",
"f+	c #7CA825",
"g+	c #77A226",
"h+	c #5E8828",
"i+	c #4B7128",
"j+	c #9C882C",
"k+	c #9F872B",
"l+	c #9E862B",
"m+	c #9E842B",
"n+	c #9D832B",
"o+	c #9D822B",
"p+	c #9C812A",
"q+	c #9C802A",
"r+	c #9B7F2A",
"s+	c #9B7E2A",
"t+	c #9B7D29",
"u+	c #9A7C29",
"v+	c #9A7B28",
"w+	c #9A7A28",
"x+	c #A27F29",
"y+	c #F7B133",
"z+	c #A17C28",
"A+	c #997727",
"B+	c #997627",
"C+	c #997626",
"D+	c #7A6624",
"E+	c #1D4420",
"F+	c #485222",
"G+	c #DEB12F",
"H+	c #729D27",
"I+	c #628C28",
"J+	c #9D892C",
"K+	c #CC962D",
"L+	c #C0902C",
"M+	c #B1AB29",
"N+	c #527028",
"O+	c #E7AA31",
"P+	c #826C26",
"Q+	c #726625",
"R+	c #F3B232",
"S+	c #80A327",
"T+	c #669028",
"U+	c #568129",
"V+	c #497328",
"W+	c #467028",
"X+	c #576F28",
"Y+	c #8C802A",
"Z+	c #8B7E2A",
"`+	c #8A7D2A",
" @	c #897B2A",
".@	c #8E7C2A",
"+@	c #D9A230",
"@@	c #DEA230",
"#@	c #264720",
"$@	c #214921",
"%@	c #294C21",
"&@	c #E4A531",
"*@	c #D8AD2F",
"=@	c #5A8429",
"-@	c #507929",
";@	c #4C7629",
">@	c #416927",
",@	c #3F6627",
"'@	c #6B6D28",
")@	c #DDA330",
"!@	c #9D7B29",
"~@	c #204721",
"{@	c #244C21",
"]@	c #B78C2C",
"^@	c #B6A62C",
"/@	c #6E9828",
"(@	c #659028",
"_@	c #4B7328",
":@	c #4A7128",
"<@	c #486E28",
"[@	c #456B27",
"}@	c #426827",
"|@	c #406527",
"1@	c #3D6326",
"2@	c #3B6026",
"3@	c #8B7B2A",
"4@	c #EEAC32",
"5@	c #F5B033",
"6@	c #D99F2F",
"7@	c #C5922C",
"8@	c #BE8E2C",
"9@	c #BE8F2C",
"0@	c #A48029",
"a@	c #284920",
"b@	c #244C22",
"c@	c #254E22",
"d@	c #867328",
"e@	c #8F9D29",
"f@	c #6A9428",
"g@	c #618C28",
"h@	c #4F7929",
"i@	c #CC9E2F",
"j@	c #EBAC32",
"k@	c #EBAB32",
"l@	c #EBAA32",
"m@	c #DB9F2F",
"n@	c #655D23",
"o@	c #1A421F",
"p@	c #234C22",
"q@	c #445924",
"r@	c #F4B033",
"s@	c #F2B132",
"t@	c #6F9528",
"u@	c #8A832B",
"v@	c #E3A430",
"w@	c #414E21",
"x@	c #2F5524",
"y@	c #E1A531",
"z@	c #E3AC31",
"A@	c #568029",
"B@	c #466F28",
"C@	c #B3922D",
"D@	c #D3A030",
"E@	c #D39F30",
"F@	c #D39E30",
"G@	c #D29E30",
"H@	c #E7A931",
"I@	c #886F26",
"J@	c #2F5724",
"K@	c #CB992E",
"L@	c #D3A72F",
"M@	c #527C29",
"N@	c #446C28",
"O@	c #406927",
"P@	c #3E6627",
"Q@	c #3B6327",
"R@	c #365E26",
"S@	c #5F6927",
"T@	c #ECAB32",
"U@	c #DA9F2F",
"V@	c #22441F",
"W@	c #BC912D",
"X@	c #C7A22E",
"Y@	c #5D8829",
"Z@	c #598429",
"`@	c #365D25",
" #	c #CE9B2F",
".#	c #836C25",
"+#	c #1E4420",
"@#	c #234A21",
"##	c #A98A2B",
"$#	c #C09E2E",
"%#	c #A08B2C",
"&#	c #B4932D",
"*#	c #B4922D",
"=#	c #B3902D",
"-#	c #B28F2D",
";#	c #B28E2D",
">#	c #B18D2C",
",#	c #B18C2C",
"'#	c #BA912D",
")#	c #D59C2F",
"!#	c #20431F",
"~#	c #9D862B",
"{#	c #B59A2D",
"]#	c #4C7628",
"^#	c #497228",
"/#	c #797D2A",
"(#	c #7E6925",
"_#	c #1E4620",
":#	c #2C5524",
"<#	c #355E26",
"[#	c #96842B",
"}#	c #B4992D",
"|#	c #476F28",
"1#	c #D1A02F",
"2#	c #FAB233",
"3#	c #D29A2E",
"4#	c #1E421F",
"5#	c #98872B",
"6#	c #BE9A2E",
"7#	c #4C7528",
"8#	c #446C27",
"9#	c #6B7328",
"0#	c #6D7229",
"a#	c #6B7028",
"b#	c #6A6E28",
"c#	c #696C28",
"d#	c #686A27",
"e#	c #676927",
"f#	c #666726",
"g#	c #A7852B",
"h#	c #776524",
"i#	c #2F5725",
"j#	c #A28D2C",
"k#	c #C39C2E",
"l#	c #436C27",
"m#	c #386126",
"n#	c #335C25",
"o#	c #CC972E",
"p#	c #1D421E",
"q#	c #AF942D",
"r#	c #D0A02F",
"s#	c #487228",
"t#	c #516727",
"u#	c #5C6927",
"v#	c #5B6726",
"w#	c #596526",
"x#	c #586326",
"y#	c #576125",
"z#	c #566025",
"A#	c #C2932D",
"B#	c #6E6023",
"C#	c #224B21",
"D#	c #2A5323",
"E#	c #C19C2E",
"F#	c #E0A731",
"G#	c #436B27",
"H#	c #496527",
"I#	c #E5A831",
"J#	c #F5B032",
"K#	c #F4B032",
"L#	c #DCA030",
"M#	c #2D5524",
"N#	c #D2A42F",
"O#	c #F1AE32",
"P#	c #4D6E28",
"Q#	c #3E6527",
"R#	c #AD8B2C",
"S#	c #CE982E",
"T#	c #5B8429",
"U#	c #E6AC31",
"V#	c #777829",
"W#	c #385F26",
"X#	c #AA892B",
"Y#	c #B98F2C",
"Z#	c #B88F2C",
"`#	c #B88E2C",
" $	c #B88D2C",
".$	c #B78D2C",
"+$	c #B78C2B",
"@$	c #C0912C",
"#$	c #746424",
"$$	c #17411E",
"%$	c #18411E",
"&$	c #19411F",
"*$	c #19421F",
"=$	c #1B431F",
"-$	c #1B441F",
";$	c #1C4420",
">$	c #1D4520",
",$	c #1F4821",
"'$	c #204921",
")$	c #214B21",
"!$	c #275023",
"~$	c #708D28",
"{$	c #F6B133",
"]$	c #A78A2C",
"^$	c #3B6227",
"/$	c #2E5724",
"($	c #295123",
"_$	c #254D22",
":$	c #234C21",
"<$	c #304D21",
"[$	c #E9A931",
"}$	c #E6A631",
"|$	c #D79E2F",
"1$	c #D89F2F",
"2$	c #D89F30",
"3$	c #D8A030",
"4$	c #D9A030",
"5$	c #8C7829",
"6$	c #9F9B2B",
"7$	c #D09D2F",
"8$	c #396026",
"9$	c #AE852A",
"0$	c #6D6C27",
"a$	c #466E28",
"b$	c #608A29",
"c$	c #C8A72E",
"d$	c #4C6427",
"e$	c #796C27",
"f$	c #D0992E",
"g$	c #D59C2E",
"h$	c #C8972E",
"i$	c #365F26",
"j$	c #719928",
"k$	c #EAB031",
"l$	c #9A802A",
"m$	c #2C5023",
"n$	c #676B27",
"o$	c #9EA529",
"p$	c #D59F2F",
"q$	c #305724",
"r$	c #817027",
"s$	c #F1AD32",
"t$	c #AC8A2C",
"u$	c #618B28",
"v$	c #77A126",
"w$	c #D3AF2E",
"x$	c #706B27",
"y$	c #2C4E22",
"z$	c #324E22",
"A$	c #314D22",
"B$	c #304C21",
"C$	c #2F4B21",
"D$	c #2E4921",
"E$	c #2D4920",
"F$	c #2D4820",
"G$	c #314820",
"H$	c #3D4B20",
"I$	c #3C4B20",
"J$	c #3C4B1F",
"K$	c #786624",
"L$	c #EDAB32",
"M$	c #3E4D21",
"N$	c #3E4E21",
"O$	c #3F4F21",
"P$	c #3F5021",
"Q$	c #405122",
"R$	c #415222",
"S$	c #415322",
"T$	c #425523",
"U$	c #445623",
"V$	c #455824",
"W$	c #465A24",
"X$	c #485C25",
"Y$	c #4A5F25",
"Z$	c #405F26",
"`$	c #90AC25",
" %	c #C9972E",
".%	c #2A5123",
"+%	c #B4882B",
"@%	c #2B5324",
"#%	c #80AB24",
"$%	c #CDB32B",
"%%	c #716826",
"&%	c #4E5221",
"*%	c #F3AF32",
"=%	c #575723",
"-%	c #99B523",
";%	c #F4B332",
">%	c #D59D2F",
",%	c #294D22",
"'%	c #8C7127",
")%	c #B3882B",
"!%	c #557F29",
"~%	c #80AC24",
"{%	c #8AB521",
"]%	c #D8B72C",
"^%	c #987A28",
"/%	c #1A431F",
"(%	c #1B4420",
"_%	c #77A326",
":%	c #81AC24",
"<%	c #8AB621",
"[%	c #B3BB24",
"}%	c #5A5A23",
"|%	c #689328",
"1%	c #9BBE20",
"2%	c #EEB530",
"3%	c #D69D2F",
"4%	c #8BB621",
"5%	c #93BF1F",
"6%	c #DCB92C",
"7%	c #20441F",
"8%	c #345C25",
"9%	c #709A28",
"0%	c #81AD24",
"a%	c #CBBB28",
"b%	c #A88129",
"c%	c #709B27",
"d%	c #8BB721",
"e%	c #93BF20",
"f%	c #C0BD26",
"g%	c #A37E29",
"h%	c #1B411E",
"i%	c #3E6727",
"j%	c #699328",
"k%	c #BEBD26",
"l%	c #F7B332",
"m%	c #AA8229",
"n%	c #1F421E",
"o%	c #699428",
"p%	c #C2BC26",
"q%	c #C1902C",
"r%	c #31471F",
"s%	c #95BF1F",
"t%	c #CFBB29",
"u%	c #DBA02F",
"v%	c #5E5922",
"w%	c #274F23",
"x%	c #719C27",
"y%	c #8CB721",
"z%	c #A0BF21",
"A%	c #E1B82D",
"B%	c #A07C28",
"C%	c #254520",
"D%	c #436B28",
"E%	c #BDBC26",
"F%	c #F1B431",
"G%	c #7A6825",
"H%	c #1F4520",
"I%	c #295223",
"J%	c #436C28",
"K%	c #7AA526",
"L%	c #A6B724",
"M%	c #E1B62D",
"N%	c #CF992E",
"O%	c #7B6925",
"P%	c #254821",
"Q%	c #5C8728",
"R%	c #7BA526",
"S%	c #A1AF26",
"T%	c #D9B42D",
"U%	c #F7B233",
"V%	c #DDA130",
"W%	c #A38029",
"X%	c #4F5923",
"Y%	c #5D8728",
"Z%	c #7F9E28",
"`%	c #B5AA2B",
" &	c #E1B12F",
".&	c #F4AF33",
"+&	c #AF882B",
"@&	c #837328",
"#&	c #485E25",
"$&	c #365A25",
"%&	c #355D25",
"&&	c #598129",
"*&	c #6A8A29",
"=&	c #94962A",
"-&	c #BAA22D",
";&	c #DCAC30",
">&	c #E6A831",
",&	c #D9A130",
"'&	c #C99A2E",
")&	c #C1962E",
"!&	c #C0972E",
"~&	c #C0982E",
"{&	c #C29A2E",
"]&	c #CBA02F",
"^&	c #DAA630",
"/&	c #E7AC31",
"                                                      . . . . . . . . . .                                                       ",
"                                              . . + @ # $ % & * = - ; > , ' + . .                                               ",
"                                        . . ) ! ~ { ] ^ / ( _ : < [ } | 1 2 3 4 5 6 . .                                         ",
"                                    . + 7 8 9 0 a b c / ( _ d e [ } | f g h i j k l m n o .                                     ",
"                                . + p q r s t a b u / ( _ d e [ } v f g h i j k w x y z A B C .                                 ",
"                            . . D E F G s t a b u H I _ d e [ J v f g h K j k w x y L M N O P Q R .                             ",
"                          . S T U V G s W X b u H I _ d e [ J v f g h K j k w x y L M N Y Z `  ...+..                           ",
"                        . @.#.$.V G s W %.b u H &._ d e [ *.v f g h K j k w x y =.M N Y -.;.>.,.'.).!.+ .                       ",
"                    . + ~.{.$.V G s W %.b u H &._ d e [ *.v f g ].K j k w x y =.M N Y ^.;.>.,.'./.(._.:.o .                     ",
"                  . + <.[.$.V G s W %.b u }.&.|.d e [ *.1.2.g ].K j 3.4.x y =.M N Y -.5.>.,.'./.(.6.7.8.9.0..                   ",
"                . + a.b.$.V G s c.%.b u }.&.d.e.e f.*.1.2.g.].K j 3.4.x y =.M N Y -.5.>.,.h./.(.6.7.8.i.j.k.0..                 ",
"                + l.b.m.n.o.s p.%.b q.}.&.d.e.e f.*.1.r.g.].K s.3.4.x y =.M t.Y -.5.>.,.h./.(.6.7.8.i.j.u.v.w.o .               ",
"              . x.b.y.n.o.z.p.A.b q.}.&.d.e.e f.*.1.r.g.].K B.3.C.x y =.M t.Y -.5.>.,.h./.(.6.7.8.i.j.u.v.v.v.D.R               ",
"            . E.F.y.n.o.z.p.A.G.q.}.&.d.e.e f.*.1.r.g.].K B.3.C.H.I.=.M t.Y -.5.>.,.h.J.(.6.7.8.i.j.u.v.v.v.v.K.L..             ",
"          . M.N.y.O.o.z.p.A.G.P.}.&.d.e.e f.*.1.r.g.].K B.Q.C.H.I.=.M t.Y -.5.>.,.h.J.R.6.7.8.i.j.u.v.v.v.v.v.v.S.T..           ",
"          . U.V.O.o.z.p.W.G.P.X.&.d.Y.Z.`.*.1.r. +.+K B.Q.C.H.++@+M t.Y -.#+$+%+&+*+=+6.7.8.i.j.u.v.v.v.v.v.v.v.u.-+o           ",
"        . ;+>+,+'+z.p.W.)+P.X.!+d.Y.Z.`.*.1.r. +.+K B.~+C.{+++@+M t.Y -.]+^+/+/+/+(+_+7.8.i.j.u.v.v.v.v.v.v.v.u.u.:+<+.         ",
"        [+}+,+'+z.p.W.)+P.X.|+1+Y.Z.`.*.2+r. +.+K B.3+C.{+++@+M t.Y -.5.4++ . . . 5+6+8.i.j.u.v.v.v.v.v.v.v.u.u.j.j.7+8+.       ",
"      . 9+,+'+z.p.W.)+P.X.|+1+Y.Z.`.0+2+r. +.+K B.3+C.{+++@+a+t.Y -.5. .b+. . . . c+8.i.j.u.v.v.v.v.v.v.v.u.u.j.j.i.i.d+.       ",
"      + e+f+g+p.W.)+P.X.h+1+Y.Z.`.0+2+i+j+k+l+m+n+o+p+q+r+s+t+u+u+v+w+x+y+. . . o z+A+B+B+C+C+C+C+C+C+C+C+B+B+B+D+i.E+F+6       ",
"    . G+'+g+H+W.)+P.I+h+1+Y.Z.`.0+2+r.J+. . . . . . . . . . . . . . . . . . . . . . . . . . . . . . . . . . . . K+E+7.6.L+.     ",
"    . M+g+H+W.)+P.I+h+1+Y.Z.`.0+2+r.N+O+. . . . . . . . . . . . . . . . . . . . . . . . . . . . . . . . . . . + P+7.6.(.Q+R     ",
"    R+S+H+W.)+T+I+h+1+U+Z.`.0+V+W+ +X+Y+Z+`+ @.@+@. . . . . . . . . . . . . . . . . . . . . . . . . . . . . . @@#@6.(.$@%@&@.   ",
"  . *@H+W.)+T+I+h+=@U+Z.-@;@V+W+ +>@,@B.~+C.'@)@. . . . . . . . . . . . . . . . . . . . . . . . . . . . . . . !@6.~@$@'.{@]@.   ",
"  . ^@/@)+(@I+h+=@U+Z.-@;@_@:@<@[@}@|@1@2@3@4@. . . . . . . . . . . . 5@6@7@8@8@8@8@8@8@8@8@8@8@8@8@8@8@8@9@0@a@J.$@'.b@c@d@.   ",
"  + e@f@(@g@h+=@U+Z.h@;@2+i@j@k@k@k@k@k@l@o . . . . . . . . . . . . m@n@o@j.u.v.v.v.v.v.v.v.u.j.j.j.i.8.E+7.6.J.$@'.p@c@-.q@r@  ",
"  s@t@(@g@h+=@U+Z.h@;@V+u@R . . . . . . . . . . . . . . . . . . . v@w@i.j.u.v.v.v.v.v.v.v.u.j.j.j.i.8.E+7.6.J.$@'.b@c@-.Y x@y@. ",
". z@T+g@h+=@A@Z.h@;@V+B@C@D@E@E@F@G@H@. . . . . . . . . . . . . + I@i.j.u.v.v.v.v.v.v.v.u.j.j.j.i.8.E+7.6.J.$@'.b@c@-.Y N J@K@. ",
". L@g@h+=@A@M@h@;@V+B@N@O@P@Q@~+R@S@T@. . . . . . . . . . . . . U@V@j.u.v.v.v.v.v.v.v.u.j.j.j.i.8.E+7.6.J.$@'.b@c@-.Y N J@++W@. ",
". X@Y@Z@A@M@h@;@V+B@N@>@P@Q@~+R@`@ #. . . . . . . . . . . . . R .#j.u.v.v.v.v.v.v.v.u.j.j.j.i.8.+#7.6.J.$@@#b@c@-.Y N J@++x ##. ",
". $#Z@A@M@h@;@V+%#&#*#=#-#;#>#,#'#+ . . . . . . . . . . . . . )#!#u.v.v.v.v.v.v.v.u.j.j.j.i.8.7.7.6.J.$@@#b@5.-.Y N J@++x ~+~#. ",
". {#A@M@h@]#^#/#5@. . . . . . . . . . . . . . . . . . . . . R (#v.v.v.v.v.v.v.v.u.j.j.:+i.8.7._#6.J.$@@#b@5.-.Y :#J@++<#~+j [#. ",
". }#M@h@]#^#|#1#2#2#2#2#2#2#2#. . . . . . . . . . . . . . . 3#4#v.v.v.v.v.v.v.u.j.j.i.i.8.7._#R.J.$@,.b@5.-.Y :#J@++<#~+j O@5#. ",
". 6#h@7#^#B@8#9#0#a#b#c#d#e#f#g#. . . . . . . . . . . . . y+h#v.v.v.v.v.v.v.u.j.j.i.i.8.7._#R.J.$@,.b@5.-.Y :#i#I.<#~+j O@ +j#. ",
". k#7#^#B@l#O@P@Q@m#R@n#z J@:#]@. . . . . . . . . . . . . o#p#v.v.v.v.v.v.u.j.j.i.i.8.7.6.R.J.$@,.b@5.-.Y :#i#I.<#~+j >@g.^#q#. ",
". r#s#B@l#i P@Q@t#u#v#w#x#y#z#A#. . . . . . . . . . . . y+B#v.v.v.v.v.v.u.j.j.i.i.8.7.6.R.J.$@C#b@5.-.D#:#i#I.<#3+j >@g ^#} E#. ",
". F#|#G#i P@Q@H#I#J#J#J#K#K#K#y+. . . . . . . . . . . . L#K.v.v.v.v.v.u.j.j.i.i.8.7.6.(.J.$@C#b@5.-.D#M#@+I.R@3+j >@g V+} Z.N#. ",
"  O#P#i Q#Q@w R#. . . . . . . . . . . . . . . . . . . . S#v.v.v.v.v.u.j.j.i.i.E+7.6.R.J.$@C#b@5.-.D#M#@+y R@~+j >@g V+} Z.T#U#. ",
"  + V#Q#Q@w W#X#Y#Z#`# $.$+$+$@$+ . . . . . . . . . . . 6 #$$$%$%$&$*$*$o@=$-$;$>$_#,$'$)$p@c@!$Y M#@+y R@~+j >@g V+} Z.Z@~${$  ",
"  . ]$^$w <#n#z /$N D#($;._$:$<$[$. . . . . . . . . . . . o }$|$|$|$|$|$|$|$|$|$|$|$1$1$2$2$3$4$5$@+y R@~+j >@g V+} Z.Z@( 6$.   ",
"  . 7$8$<#y L /$N D#($;._$:$'.$@9$. . . . . . . . . . . . . . . . . . . . . . . . . . . . . . o 0$y R@~+j >@a$V+} e =@b$P.c$.   ",
"    O#d$y L /$N D#($e$f$f$f$f$f$g$. . . . . . . . . . . . . . . . . . . . . . . . . . . . . . h$y i$3.j .+a$2+} e =@( q.j$k$.   ",
"    . l$L /$N D#($m$6@. . . . . . . . . . . . . . . . . . . . . . . . . . . . . . . . . . . r@n$i$3.P@.+B@2+h@e =@( q.W.o$.     ",
"    . p$q$N D#($;.r$l@l@l@l@l@l@l@T@6 6 6 6 6 6 6 s$. . . . . 0.6 6 6 s$O#O#O#O#O#O#O#O#O#T@t$C.3.P@.+B@2+h@< =@u$u W.v$w$.     ",
"      y+x$D#Z ;._$y$z$A$B$C$D$E$F$G$H$I$J$J$J$J$J$K$R . . . L$7+M$N$O$P$Q$R$S$T$U$V$W$X$Y$Z$R@3.P@.+B@1.h@< =@u$u W.g+`$)       ",
"      .  %.%;._$:$'.$@(.6.7.8.i.j.u.v.v.v.v.v.v.v.L.. . . . +%E+7.6.(./.'.,.>.` ($@%M#=.y i$3.P@].B@1.h@< 1+u$u A.g+#%$%.       ",
"        o %%_$:$'.$@(.6.7.8.i.j.u.v.v.v.v.v.v.v.&%0.. . . *%=%7.6.(.J.h.,.>.` ($@%M#=.n#C.k P@].B@v h@< 1+u$c %.g+#%-%;%.       ",
"        . >%,%'./.(.6.7.8.i.j.u.v.v.v.v.v.v.v.v.'%)#)#)#)#)%7.6.(.J.h.,.>.;.($@%M#=.n#C.k P@].B@v h@!%d.u$c %.g+~%{%]%.         ",
"          + ^%/.(.6.7.8.i.j.u.v.v.v.v.v.v.v.v.u.o@*$o@/%(%>$6.(.J.h.,.>.` ($@%M#=.n#C.k P@].B@v h@!%d.u$c %._%:%<%[%+           ",
"          . 4@}%6.7.8.i.j.u.v.v.v.v.v.v.v.v.u.j.j.i.i.E+7.6.(./.h.,.>.;.($@%a+=.n#C.k P@].B@v h@!%d.g@|%%.z.:%<%1%2%.           ",
"            . 3%D$8.i.j.u.v.v.v.v.v.v.v.v.u.j.j.i.i.E+7.6.(./.h.,.>.;.($@%a+L n#C.k P@].B@v h@!%d.g@|%%.z.:%4%5%6%.             ",
"              . 8@7%j.u.v.v.v.v.v.v.v.v.u.j.j.i.i.E+7.6.(./.h.,.>.;.($@%a+L 8%C.k P@G#W+| h@!%d.g@|%9%z.0%4%5%a%.               ",
"                R b%:+v.v.v.v.v.v.v.v.u.j.j.i.i.E+7.6.(./.'.,._$;.($@%a+L 8%C.k P@G#W+| `.!%|.I+|%c%z.0%d%e%f%+ .               ",
"                  y+g%h%v.v.v.v.v.u.u.j.j.i.i.E+7.6.(./.'.,._$;.($@%a+L 8%C.k i%h r.| `.A@_ I+j%c%s ,+d%e%k%l%.                 ",
"                  . y+m%n%v.v.v.u.u.j.j.i.i.E+7.6.(./.'.,._$;.($@%M z 8%4.Q@i%h r.| `.A@_ I+o%c%s ,+d%5%p%l%.                   ",
"                      + q%r%v.u.u.j.j.i.i.E+7.6.(./.'.,._$;.($t.M z 8%4.Q@K G#r.| `.A@_ I+o%c%s ,+d%s%t%+ .                     ",
"                        . u%v%u.j.j.i.i.E+7.6.(./.'.,._$w%($t.M z 8%4.Q@K G#r.7#f.A@_ }.o%x%s n.y%z%A%.                         ",
"                          . 6 B%C%i.i.E+7.6.(./.'.,._$w%($N M z 8%4.Q@K D%r.7#[ A@_ }.o%x%s V b.E%F%.                           ",
"                            . . m@G%H%7.6.(./.'.:$_$w%I%N M z 8%w Q@K J%r.7#[ A@_ }.f@x%K%V L%M%. .                             ",
"                                . y+N%O%P%/.'.:$_$w%Y N M z {+w Q@K J%r.7#[ A@Q%}.)+x%R%S%T%U%.                                 ",
"                                    . R V%W%X%5.w%Y N M z {+w Q@K J%r.;@[ A@Y%}.)+Z%`% &+ .                                     ",
"                                        . . .&1$+&@&#&$&%&w Q@K J%r.;@[ &&*&=&-&;&) . .                                         ",
"                                              . . . o >&,&'&)&!&~&{&]&^&/&@ . . .                                               ",
"                                                      . . . . . . . . . .                                                       "};
