/* XPM */
static char * C:\Users\hongl\Downloads\chta_16x16_xpm[] = {
"16 16 186 2",
"  	c None",
". 	c #CDAC2E",
"+ 	c #B4A12D",
"@ 	c #AD982C",
"# 	c #A9912D",
"$ 	c #A98C2C",
"% 	c #BF932E",
"& 	c #D5B42C",
"* 	c #A8AC28",
"= 	c #769B28",
"- 	c #628A28",
"; 	c #537B29",
"> 	c #476F28",
", 	c #3F6327",
"' 	c #405C25",
") 	c #847027",
"! 	c #C2912D",
"~ 	c #CEB42B",
"{ 	c #90AD25",
"] 	c #709B27",
"^ 	c #608A28",
"/ 	c #517B29",
"( 	c #456E28",
"_ 	c #3A6226",
": 	c #315825",
"< 	c #285023",
"[ 	c #244A21",
"} 	c #4D5221",
"| 	c #B7892A",
"1 	c #D4B32C",
"2 	c #8FAD25",
"3 	c #709A27",
"4 	c #5F8A28",
"5 	c #456D28",
"6 	c #315925",
"7 	c #3F5624",
"8 	c #354E22",
"9 	c #1E4520",
"0 	c #1B421F",
"a 	c #4A4F20",
"b 	c #C18F2B",
"c 	c #A6AB28",
"d 	c #6F9A27",
"e 	c #5F8929",
"f 	c #567B29",
"g 	c #727929",
"h 	c #707128",
"i 	c #6D6A27",
"j 	c #726926",
"k 	c #DBA030",
"l 	c #B2862A",
"m 	c #685C22",
"n 	c #675B22",
"o 	c #665B22",
"p 	c #846B25",
"q 	c #CBAA2E",
"r 	c #759A28",
"s 	c #5F8928",
"t 	c #557B29",
"u 	c #717929",
"v 	c #C9992E",
"w 	c #F2AE32",
"x 	c #F5AF33",
"y 	c #F4AF32",
"z 	c #F5B033",
"A 	c #F3AE32",
"B 	c #F1AD32",
"C 	c #E6A631",
"D 	c #625C23",
"E 	c #B98C2B",
"F 	c #B3A02C",
"G 	c #608928",
"H 	c #AD902D",
"I 	c #CA9A2F",
"J 	c #E7A831",
"K 	c #F9B233",
"L 	c #F8B233",
"M 	c #CB952D",
"N 	c #7E6824",
"O 	c #786423",
"P 	c #786424",
"Q 	c #786524",
"R 	c #675F23",
"S 	c #2D4E22",
"T 	c #A4822A",
"U 	c #AB972C",
"V 	c #5E7C29",
"W 	c #A58C2C",
"X 	c #AD8B2C",
"Y 	c #DEA330",
"Z 	c #EBA931",
"` 	c #615922",
" .	c #1A411E",
"..	c #1A411F",
"+.	c #1C431F",
"@.	c #1F4720",
"#.	c #244C22",
"$.	c #2E5624",
"%.	c #A2852B",
"&.	c #A8902C",
"*.	c #627428",
"=.	c #A4862B",
"-.	c #B68C2C",
";.	c #F6B033",
">.	c #F8B133",
",.	c #B6872A",
"'.	c #23431E",
").	c #244D22",
"!.	c #2D5624",
"~.	c #3B6226",
"{.	c #A98B2C",
"].	c #5D6A27",
"^.	c #BB8F2C",
"/.	c #C5932D",
"(.	c #F5B032",
"_.	c #F7B133",
":.	c #B1852A",
"<.	c #846C25",
"[.	c #846D26",
"}.	c #826F27",
"|.	c #425A24",
"1.	c #4D7428",
"2.	c #AE972D",
"3.	c #C0932D",
"4.	c #425C25",
"5.	c #8E7628",
"6.	c #C3912D",
"7.	c #E9A831",
"8.	c #F5AF32",
"9.	c #EEAC32",
"0.	c #EFAC32",
"a.	c #D79F30",
"b.	c #4F6827",
"c.	c #4B7428",
"d.	c #688C28",
"e.	c #C6A62E",
"f.	c #857127",
"g.	c #384E22",
"h.	c #434E21",
"i.	c #454D20",
"j.	c #4D5020",
"k.	c #C4912C",
"l.	c #BB8B2B",
"m.	c #4C5422",
"n.	c #4B5823",
"o.	c #4F5F25",
"p.	c #4D6727",
"q.	c #4C7528",
"r.	c #638D28",
"s.	c #A2A828",
"t.	c #515421",
"u.	c #1B411E",
"v.	c #1C421F",
"w.	c #374A20",
"x.	c #324B21",
"y.	c #254D22",
"z.	c #3B6327",
"A.	c #638E28",
"B.	c #8CAB25",
"C.	c #D4B52C",
"D.	c #BA8B2B",
"E.	c #515220",
"F.	c #1D421F",
"G.	c #204720",
"H.	c #264E22",
"I.	c #2F5724",
"J.	c #3C6427",
"K.	c #4D7628",
"L.	c #648F28",
"M.	c #8EAC25",
"N.	c #CEB72B",
"O.	c #C5912C",
"P.	c #856C25",
"Q.	c #384D21",
"R.	c #2D4F22",
"S.	c #325824",
"T.	c #3E6427",
"U.	c #507728",
"V.	c #6B8F28",
"W.	c #A5A929",
"X.	c #D5B52C",
"Y.	c #C1902C",
"Z.	c #A6832A",
"`.	c #A78E2C",
" +	c #B0992D",
".+	c #CBA82E",
"          . + @ # $ %           ",
"      & * = - ; > , ' ) !       ",
"    ~ { ] ^ / ( _ : < [ } |     ",
"  1 2 3 4 / 5 _ 6 7 8 9 0 a b   ",
"  c d e f g h i j k l m n o p   ",
"q r s t u v w x y z A B B C D E ",
"F G f H I J K L M N O P Q R S T ",
"U V W X Y K K Z `  ...+.@.#.$.%.",
"&.*.=.-.;.K >.,.'...+.@.).!.~.W ",
"{.].^./.(.K _.:.p <.[.}.|._ 1.2.",
"3.4.5.6.7.B (.8.9.0.0.a.b.c.d.e.",
"  f.g.h.i.j.k.l.m.n.o.p.q.r.s.  ",
"  k.t.u. .v.w.x.y.$.z.q.A.B.C.  ",
"    D.E.F.+.G.H.I.J.K.L.M.N.    ",
"      O.P.Q.R.S.T.U.V.W.X.      ",
"          Y.Z.=.`. +.+          "};
