<?xml version="1.0" standalone="no"?>
<!DOCTYPE svg PUBLIC "-//W3C//DTD SVG 20010904//EN"
 "http://www.w3.org/TR/2001/REC-SVG-20010904/DTD/svg10.dtd">
<svg version="1.0" xmlns="http://www.w3.org/2000/svg"
 width="48.000000pt" height="48.000000pt" viewBox="0 0 48.000000 48.000000"
 preserveAspectRatio="xMidYMid meet">

<g transform="translate(0.000000,48.000000) scale(0.100000,-0.100000)"
fill="#000000" stroke="none">
<path d="M176 437 c-53 -28 -59 -29 -68 -13 -5 9 -13 14 -18 11 -4 -3 -10 2
-14 10 -3 9 -19 15 -41 15 l-35 0 0 -173 c0 -121 4 -177 12 -185 20 -20 28
-13 17 14 l-10 27 28 -18 c28 -18 28 -18 10 2 -34 39 5 34 56 -6 20 -16 37 -7
19 11 -18 18 -14 32 5 17 15 -12 16 -12 9 5 -5 15 -1 13 18 -7 28 -30 38 -34
30 -13 -4 11 0 13 15 9 17 -4 20 -2 15 13 -7 18 -6 18 13 -1 13 -13 16 -22 9
-27 -7 -4 -4 -9 6 -13 20 -8 41 2 33 15 -3 5 0 19 7 30 11 17 11 22 0 29 -17
10 -12 103 6 109 7 2 12 -5 12 -16 0 -24 27 -37 46 -21 15 12 19 49 6 49 -5 0
-18 9 -30 20 -12 12 -22 16 -22 10 0 -6 -5 -8 -10 -5 -8 5 -7 11 1 21 10 12 9
13 -5 8 -10 -4 -18 0 -22 11 -4 9 -16 21 -28 25 -21 9 -21 9 0 9 11 1 28 7 38
14 15 11 15 15 4 24 -28 23 -54 21 -112 -10z m-63 -44 c3 -5 -8 -8 -23 -8 -15
0 -26 3 -23 8 2 4 13 7 23 7 10 0 21 -3 23 -7z"/>
<path d="M366 401 c-16 -18 -16 -20 1 -32 10 -8 25 -27 33 -43 11 -21 16 -25
18 -13 2 10 7 17 12 17 13 0 21 31 14 53 -5 14 -8 16 -14 7 -5 -7 -15 -10 -25
-6 -14 5 -15 9 -5 21 19 23 -13 19 -34 -4z"/>
<path d="M400 139 c0 -5 5 -7 10 -4 6 3 10 8 10 11 0 2 -4 4 -10 4 -5 0 -10
-5 -10 -11z"/>
<path d="M460 83 c-8 -27 -13 -54 -12 -60 2 -8 -3 -10 -13 -7 -8 3 -15 1 -15
-5 0 -6 14 -11 31 -11 28 0 30 2 18 17 -10 11 -10 14 -1 9 9 -5 12 7 12 48 0
31 -1 56 -3 56 -1 0 -9 -21 -17 -47z"/>
<path d="M348 102 c-8 -9 -8 -20 1 -38 9 -21 13 -23 24 -12 12 14 37 55 37 62
0 10 -53 0 -62 -12z m22 -2 c0 -5 -5 -10 -11 -10 -5 0 -7 5 -4 10 3 6 8 10 11
10 2 0 4 -4 4 -10z"/>
<path d="M0 53 c0 -19 66 -60 78 -48 3 3 0 5 -6 5 -6 0 -9 7 -6 15 4 9 0 15
-10 15 -9 0 -16 5 -16 12 0 6 -3 8 -7 5 -3 -4 -12 -2 -20 4 -10 9 -13 7 -13
-8z"/>
<path d="M336 27 c3 -10 9 -15 12 -12 3 3 0 11 -7 18 -10 9 -11 8 -5 -6z"/>
</g>
</svg>
